<svg width="70" height="70" fill="none" xmlns="http://www.w3.org/2000/svg"><circle cx="35" cy="35" r="35" fill="#fff"/><path d="M35 0c-4.707 0-9.19.929-13.257 2.594V37.37c.384 7.493 6.596 13.449 14.186 13.449 4.579 0 8.678-2.178 11.271-5.572-.64 3.587-2.37 7.013-5.123 9.799-3.97 3.97-9.67 6.18-15.275 4.995a14.682 14.682 0 01-2.113-.608c-4.195-1.505-7.781-4.643-10.247-8.262a25.979 25.979 0 01-4.483-14.57c0-.352 0-.672.032-1.025v-25.04C3.81 16.842 0 25.456 0 35c0 19.341 15.659 35 35 35s35-15.659 35-35S54.31 0 35 0z" fill="#0F9990"/><path d="M38.394 62.475a22.462 22.462 0 006.532-4.547c5.252-5.252 7.43-13.514 6.277-20.782-1.057-6.565-6.437-14.827-13.93-14.666v3.682c0 .512-.352 3.138 0 3.49-.192-.224-12.296-12.328-12.296-12.328L37.273 5.028v5.667c13.706.705 24.625 12.073 24.625 25.938 0 13.481-10.343 24.593-23.504 25.842z" fill="#55BDBD"/></svg>