<svg width="12" height="11" fill="none" xmlns="http://www.w3.org/2000/svg"><path opacity=".4" fill-rule="evenodd" clip-rule="evenodd" d="M10.587 2.477c.26-.252.45-.537.494-.91 0-.008.008-.017.017-.026v-.294c-.035-.121-.06-.251-.104-.364A1.365 1.365 0 009.903.026c-.018 0-.043-.017-.06-.017h-.304c-.043.008-.086.026-.13.034-.294.06-.545.217-.762.425-.996.987-1.991 1.983-2.996 2.97-.026.017-.052.06-.078.095-.017.009-.035.009-.06.017-.018-.043-.035-.086-.07-.12A945.96 945.96 0 012.482.484c-.251-.251-.537-.433-.9-.476 0 .008-.01 0-.018-.009H1.26C1.114.043.966.07.828.13c-.866.39-1.109 1.515-.46 2.2.624.649 1.274 1.272 1.906 1.904.407.399.805.788 1.204 1.187.026.026.052.052.095.104-.043.026-.087.043-.113.078-1.004.987-2 1.983-3.005 2.97-.459.459-.58 1.074-.32 1.628.398.84 1.524 1.065 2.208.433.243-.225.476-.46.71-.693.797-.788 1.594-1.576 2.39-2.373a.435.435 0 00.07-.104h.051c.035.044.061.096.104.139.996.987 1.983 1.974 2.98 2.953.467.459 1.082.571 1.645.294.433-.208.684-.563.77-1.03.009-.026.018-.044.026-.07v-.303c-.008-.043-.026-.086-.034-.13-.061-.294-.217-.536-.434-.753-.995-.978-1.982-1.966-2.978-2.953a1.565 1.565 0 00-.113-.095c.043-.043.07-.078.104-.104.987-.978 1.966-1.957 2.953-2.935z" fill="#fff"/></svg>