<svg width="18" height="20" fill="none" xmlns="http://www.w3.org/2000/svg"><path d="M6.348 14.208c.308-.604.6-1.191.909-1.778 1.77-3.382 3.66-6.682 6.206-9.493.806-.885 1.755-1.646 2.68-2.399.648-.529 1.075-.603 1.55-.496-.143.662-.27 1.332-.444 1.985a1.31 1.31 0 01-.347.57c-3.36 3.308-5.582 7.393-7.234 11.85-.498 1.34-.878 2.738-1.304 4.11-.032.092-.032.257-.087.29-.862.405-1.716.81-2.601 1.15-.103.04-.42-.29-.514-.513-1.1-2.398-2.744-4.309-4.736-5.896-.466-.372-.514-.786-.316-1.257a87.935 87.935 0 011.32-3.093c.27-.587.625-.596.98-.1.443.613.91 1.208 1.376 1.803a566.24 566.24 0 002.562 3.267z" fill="#0F9990"/></svg>