<svg width="9" height="16" viewBox="0 0 9 16" fill="none" xmlns="http://www.w3.org/2000/svg">
<path d="M8.664 7.30489L1.96205 0.589348C1.80587 0.433173 1.59539 0.34491 1.3781 0.34491C1.15402 0.34491 0.950324 0.433173 0.794149 0.589348L0.298393 1.08502C-0.0207473 1.40416 -0.0207473 1.92703 0.298393 2.25296L5.93431 7.89564L0.291679 13.5451C0.135504 13.6945 0.0539551 13.905 0.0539551 14.1291C0.0539551 14.3463 0.135504 14.5568 0.291679 14.713L0.787352 15.2019C0.943528 15.3581 1.14722 15.4464 1.3713 15.4464C1.58859 15.4464 1.79908 15.3581 1.95525 15.2019L8.664 8.47958C8.82017 8.32341 8.90843 8.11292 8.90843 7.89564C8.90843 7.67156 8.82017 7.46106 8.664 7.30489Z" fill="white"/>
</svg>
