<svg width="118" height="124" viewBox="0 0 118 124" fill="none" xmlns="http://www.w3.org/2000/svg">
<path opacity="0.14" fill-rule="evenodd" clip-rule="evenodd" d="M116.064 3.65961C115.702 3.65487 115.35 3.54366 115.051 3.33984C114.753 3.13603 114.521 2.84871 114.386 2.51411C114.251 2.1795 114.218 1.81255 114.291 1.45925C114.364 1.10596 114.541 0.782135 114.798 0.528513C115.055 0.274891 115.382 0.102743 115.737 0.0337614C116.093 -0.0352199 116.46 0.00201559 116.794 0.140786C117.128 0.279556 117.414 0.513685 117.615 0.813716C117.816 1.11375 117.923 1.46632 117.924 1.82709C117.921 2.31582 117.723 2.78326 117.374 3.12684C117.026 3.47042 116.554 3.66203 116.064 3.65961ZM116.064 20.7617C115.702 20.757 115.35 20.6456 115.051 20.4416C114.752 20.2375 114.521 19.9499 114.386 19.615C114.25 19.2801 114.218 18.9128 114.291 18.5594C114.365 18.2059 114.542 17.8822 114.8 17.6287C115.058 17.3753 115.385 17.2036 115.741 17.1352C116.096 17.0669 116.464 17.1049 116.798 17.2445C117.132 17.3841 117.417 17.619 117.617 17.9197C117.818 18.2205 117.924 18.5736 117.924 18.9346C117.919 19.4224 117.721 19.8887 117.373 20.2312C117.024 20.5737 116.554 20.7644 116.064 20.7617ZM116.064 37.8692C115.702 37.8645 115.35 37.7531 115.051 37.549C114.752 37.345 114.521 37.0574 114.386 36.7225C114.25 36.3875 114.218 36.0203 114.291 35.6668C114.365 35.3134 114.542 34.9896 114.8 34.7362C115.058 34.4828 115.385 34.3111 115.741 34.2427C116.096 34.1743 116.464 34.2124 116.798 34.3519C117.132 34.4915 117.417 34.7264 117.617 35.0272C117.818 35.3279 117.924 35.681 117.924 36.042C117.919 36.5299 117.721 36.9962 117.373 37.3386C117.024 37.6811 116.554 37.8719 116.064 37.8692ZM116.064 54.9767C115.702 54.9719 115.35 54.8607 115.051 54.6568C114.753 54.453 114.521 54.1658 114.386 53.8312C114.251 53.4966 114.218 53.1295 114.291 52.7762C114.364 52.423 114.541 52.0991 114.798 51.8455C115.055 51.5919 115.382 51.4198 115.737 51.3508C116.093 51.2818 116.46 51.3191 116.794 51.4579C117.128 51.5966 117.414 51.8307 117.615 52.1308C117.816 52.4308 117.923 52.7833 117.924 53.1441C117.92 53.6325 117.722 54.0995 117.373 54.4429C117.025 54.7863 116.554 54.9782 116.064 54.9767ZM116.064 72.0788C115.702 72.074 115.35 71.9626 115.051 71.7586C114.752 71.5545 114.521 71.267 114.386 70.932C114.25 70.5971 114.218 70.2299 114.291 69.8764C114.365 69.523 114.542 69.1992 114.8 68.9458C115.058 68.6924 115.385 68.5207 115.741 68.4523C116.096 68.3839 116.464 68.4219 116.798 68.5615C117.132 68.701 117.417 68.936 117.617 69.2367C117.818 69.5375 117.924 69.8905 117.924 70.2515C117.919 70.7394 117.721 71.2057 117.373 71.5482C117.024 71.8907 116.554 72.0815 116.064 72.0788ZM116.064 89.1863C115.702 89.1815 115.35 89.0701 115.051 88.866C114.752 88.662 114.521 88.3744 114.386 88.0395C114.25 87.7046 114.218 87.3373 114.291 86.9839C114.365 86.6304 114.542 86.3066 114.8 86.0532C115.058 85.7998 115.385 85.6281 115.741 85.5598C116.096 85.4914 116.464 85.5293 116.798 85.6689C117.132 85.8085 117.417 86.0435 117.617 86.3442C117.818 86.6449 117.924 86.998 117.924 87.359C117.919 87.8469 117.721 88.3131 117.373 88.6556C117.024 88.9981 116.554 89.189 116.064 89.1863ZM116.064 106.294C115.702 106.289 115.35 106.178 115.051 105.974C114.753 105.77 114.521 105.483 114.386 105.148C114.251 104.814 114.218 104.447 114.291 104.093C114.364 103.74 114.541 103.416 114.798 103.163C115.055 102.909 115.382 102.737 115.737 102.668C116.093 102.599 116.46 102.636 116.794 102.775C117.128 102.914 117.414 103.148 117.615 103.448C117.816 103.748 117.923 104.1 117.924 104.461C117.92 104.95 117.722 105.417 117.373 105.76C117.025 106.103 116.554 106.295 116.064 106.294ZM116.064 123.396C115.702 123.391 115.35 123.28 115.051 123.076C114.752 122.872 114.521 122.584 114.386 122.249C114.25 121.914 114.218 121.547 114.291 121.193C114.365 120.84 114.542 120.516 114.8 120.263C115.058 120.009 115.385 119.838 115.741 119.769C116.096 119.701 116.464 119.739 116.798 119.879C117.132 120.018 117.417 120.253 117.617 120.554C117.818 120.855 117.924 121.208 117.924 121.569C117.919 122.057 117.721 122.523 117.373 122.865C117.024 123.208 116.554 123.398 116.064 123.396ZM101.783 3.65961C101.421 3.65487 101.068 3.54366 100.77 3.33984C100.471 3.13603 100.24 2.84871 100.104 2.51411C99.9691 2.1795 99.936 1.81255 100.009 1.45925C100.083 1.10596 100.259 0.782135 100.516 0.528513C100.774 0.274891 101.101 0.102743 101.456 0.0337614C101.811 -0.0352199 102.179 0.00201559 102.513 0.140786C102.847 0.279556 103.132 0.513685 103.333 0.813716C103.534 1.11375 103.642 1.46632 103.642 1.82709C103.639 2.31582 103.441 2.78326 103.093 3.12684C102.744 3.47042 102.273 3.66203 101.783 3.65961ZM101.783 20.7617C101.421 20.757 101.068 20.6456 100.769 20.4416C100.471 20.2375 100.239 19.9499 100.104 19.615C99.9688 19.2801 99.9361 18.9128 100.01 18.5594C100.084 18.2059 100.261 17.8822 100.518 17.6287C100.776 17.3753 101.104 17.2036 101.459 17.1352C101.815 17.0669 102.183 17.1049 102.516 17.2445C102.85 17.3841 103.135 17.619 103.336 17.9197C103.536 18.2205 103.643 18.5736 103.642 18.9346C103.638 19.4224 103.44 19.8887 103.091 20.2312C102.743 20.5737 102.272 20.7644 101.783 20.7617ZM101.783 37.8692C101.421 37.8645 101.068 37.7531 100.769 37.549C100.471 37.345 100.239 37.0574 100.104 36.7225C99.9688 36.3875 99.9361 36.0203 100.01 35.6668C100.084 35.3134 100.261 34.9896 100.518 34.7362C100.776 34.4828 101.104 34.3111 101.459 34.2427C101.815 34.1743 102.183 34.2124 102.516 34.3519C102.85 34.4915 103.135 34.7264 103.336 35.0272C103.536 35.3279 103.643 35.681 103.642 36.042C103.638 36.5299 103.44 36.9962 103.091 37.3386C102.743 37.6811 102.272 37.8719 101.783 37.8692ZM101.783 54.9767C101.421 54.9719 101.068 54.8607 100.77 54.6568C100.471 54.453 100.24 54.1658 100.104 53.8312C99.9691 53.4966 99.936 53.1295 100.009 52.7762C100.083 52.423 100.259 52.0991 100.516 51.8455C100.774 51.5919 101.101 51.4198 101.456 51.3508C101.811 51.2818 102.179 51.3191 102.513 51.4579C102.847 51.5966 103.132 51.8307 103.333 52.1308C103.534 52.4308 103.642 52.7833 103.642 53.1441C103.638 53.6325 103.44 54.0995 103.092 54.4429C102.743 54.7863 102.273 54.9782 101.783 54.9767ZM101.783 72.0788C101.421 72.074 101.068 71.9626 100.769 71.7586C100.471 71.5545 100.239 71.267 100.104 70.932C99.9688 70.5971 99.9361 70.2299 100.01 69.8764C100.084 69.523 100.261 69.1992 100.518 68.9458C100.776 68.6924 101.104 68.5207 101.459 68.4523C101.815 68.3839 102.183 68.4219 102.516 68.5615C102.85 68.701 103.135 68.936 103.336 69.2367C103.536 69.5375 103.643 69.8905 103.642 70.2515C103.638 70.7394 103.44 71.2057 103.091 71.5482C102.743 71.8907 102.272 72.0815 101.783 72.0788ZM101.783 89.1863C101.421 89.1815 101.068 89.0701 100.769 88.866C100.471 88.662 100.239 88.3744 100.104 88.0395C99.9688 87.7046 99.9361 87.3373 100.01 86.9839C100.084 86.6304 100.261 86.3066 100.518 86.0532C100.776 85.7998 101.104 85.6281 101.459 85.5598C101.815 85.4914 102.183 85.5293 102.516 85.6689C102.85 85.8085 103.135 86.0435 103.336 86.3442C103.536 86.6449 103.643 86.998 103.642 87.359C103.638 87.8469 103.44 88.3131 103.091 88.6556C102.743 88.9981 102.272 89.189 101.783 89.1863ZM101.783 106.294C101.421 106.289 101.068 106.178 100.77 105.974C100.471 105.77 100.24 105.483 100.104 105.148C99.9691 104.814 99.936 104.447 100.009 104.093C100.083 103.74 100.259 103.416 100.516 103.163C100.774 102.909 101.101 102.737 101.456 102.668C101.811 102.599 102.179 102.636 102.513 102.775C102.847 102.914 103.132 103.148 103.333 103.448C103.534 103.748 103.642 104.1 103.642 104.461C103.638 104.95 103.44 105.417 103.092 105.76C102.743 106.103 102.273 106.295 101.783 106.294ZM101.783 123.396C101.421 123.391 101.068 123.28 100.769 123.076C100.471 122.872 100.239 122.584 100.104 122.249C99.9688 121.914 99.9361 121.547 100.01 121.193C100.084 120.84 100.261 120.516 100.518 120.263C100.776 120.009 101.104 119.838 101.459 119.769C101.815 119.701 102.183 119.739 102.516 119.879C102.85 120.018 103.135 120.253 103.336 120.554C103.536 120.855 103.643 121.208 103.642 121.569C103.638 122.057 103.44 122.523 103.091 122.865C102.743 123.208 102.272 123.398 101.783 123.396ZM87.5011 3.65961C87.1392 3.65487 86.7869 3.54366 86.4883 3.33984C86.1897 3.13603 85.9582 2.84871 85.8229 2.51411C85.6876 2.1795 85.6544 1.81255 85.7278 1.45925C85.8011 1.10596 85.9775 0.782135 86.2349 0.528513C86.4922 0.274891 86.8191 0.102743 87.1743 0.0337614C87.5294 -0.0352199 87.8971 0.00201559 88.2311 0.140786C88.5652 0.279556 88.8506 0.513685 89.0516 0.813716C89.2525 1.11375 89.3601 1.46632 89.3606 1.82709C89.3574 2.31582 89.1596 2.78326 88.811 3.12684C88.4623 3.47042 87.9913 3.66203 87.5011 3.65961ZM87.5011 20.7617C87.139 20.757 86.7863 20.6456 86.4876 20.4416C86.1889 20.2375 85.9575 19.9499 85.8223 19.615C85.6872 19.2801 85.6544 18.9128 85.7281 18.5594C85.8019 18.2059 85.9788 17.8822 86.2367 17.6287C86.4946 17.3753 86.822 17.2036 87.1775 17.1352C87.5331 17.0669 87.9009 17.1049 88.2348 17.2445C88.5687 17.3841 88.8539 17.619 89.0542 17.9197C89.2545 18.2205 89.3611 18.5736 89.3606 18.9346C89.3562 19.4224 89.158 19.8887 88.8094 20.2312C88.4609 20.5737 87.9905 20.7644 87.5011 20.7617ZM87.5011 37.8692C87.139 37.8645 86.7863 37.7531 86.4876 37.549C86.1889 37.345 85.9575 37.0574 85.8223 36.7225C85.6872 36.3875 85.6544 36.0203 85.7281 35.6668C85.8019 35.3134 85.9788 34.9896 86.2367 34.7362C86.4946 34.4828 86.822 34.3111 87.1775 34.2427C87.5331 34.1743 87.9009 34.2124 88.2348 34.3519C88.5687 34.4915 88.8539 34.7264 89.0542 35.0272C89.2545 35.3279 89.3611 35.681 89.3606 36.042C89.3562 36.5299 89.158 36.9962 88.8094 37.3386C88.4609 37.6811 87.9905 37.8719 87.5011 37.8692ZM87.5011 54.9767C87.1392 54.9719 86.7869 54.8607 86.4883 54.6568C86.1897 54.453 85.9582 54.1658 85.8229 53.8312C85.6876 53.4966 85.6544 53.1295 85.7278 52.7762C85.8011 52.423 85.9775 52.0991 86.2349 51.8455C86.4922 51.5919 86.8191 51.4198 87.1743 51.3508C87.5294 51.2818 87.8971 51.3191 88.2311 51.4579C88.5652 51.5966 88.8506 51.8307 89.0516 52.1308C89.2525 52.4308 89.3601 52.7833 89.3606 53.1441C89.3565 53.6325 89.1585 54.0995 88.8101 54.4429C88.4616 54.7863 87.991 54.9782 87.5011 54.9767ZM87.5011 72.0788C87.139 72.074 86.7863 71.9626 86.4876 71.7586C86.1889 71.5545 85.9575 71.267 85.8223 70.932C85.6872 70.5971 85.6544 70.2299 85.7281 69.8764C85.8019 69.523 85.9788 69.1992 86.2367 68.9458C86.4946 68.6924 86.822 68.5207 87.1775 68.4523C87.5331 68.3839 87.9009 68.4219 88.2348 68.5615C88.5687 68.701 88.8539 68.936 89.0542 69.2367C89.2545 69.5375 89.3611 69.8905 89.3606 70.2515C89.3562 70.7394 89.158 71.2057 88.8094 71.5482C88.4609 71.8907 87.9905 72.0815 87.5011 72.0788ZM87.5011 89.1863C87.139 89.1815 86.7863 89.0701 86.4876 88.866C86.1889 88.662 85.9575 88.3744 85.8223 88.0395C85.6872 87.7046 85.6544 87.3373 85.7281 86.9839C85.8019 86.6304 85.9788 86.3066 86.2367 86.0532C86.4946 85.7998 86.822 85.6281 87.1775 85.5598C87.5331 85.4914 87.9009 85.5293 88.2348 85.6689C88.5687 85.8085 88.8539 86.0435 89.0542 86.3442C89.2545 86.6449 89.3611 86.998 89.3606 87.359C89.3562 87.8469 89.158 88.3131 88.8094 88.6556C88.4609 88.9981 87.9905 89.189 87.5011 89.1863ZM87.5011 106.294C87.1392 106.289 86.7869 106.178 86.4883 105.974C86.1897 105.77 85.9582 105.483 85.8229 105.148C85.6876 104.814 85.6544 104.447 85.7278 104.093C85.8011 103.74 85.9775 103.416 86.2349 103.163C86.4922 102.909 86.8191 102.737 87.1743 102.668C87.5294 102.599 87.8971 102.636 88.2311 102.775C88.5652 102.914 88.8506 103.148 89.0516 103.448C89.2525 103.748 89.3601 104.1 89.3606 104.461C89.3565 104.95 89.1585 105.417 88.8101 105.76C88.4616 106.103 87.991 106.295 87.5011 106.294ZM87.5011 123.396C87.139 123.391 86.7863 123.28 86.4876 123.076C86.1889 122.872 85.9575 122.584 85.8223 122.249C85.6872 121.914 85.6544 121.547 85.7281 121.193C85.8019 120.84 85.9788 120.516 86.2367 120.263C86.4946 120.009 86.822 119.838 87.1775 119.769C87.5331 119.701 87.9009 119.739 88.2348 119.879C88.5687 120.018 88.8539 120.253 89.0542 120.554C89.2545 120.855 89.3611 121.208 89.3606 121.569C89.3562 122.057 89.158 122.523 88.8094 122.865C88.4609 123.208 87.9905 123.398 87.5011 123.396ZM73.2194 3.65961C72.8575 3.65487 72.5052 3.54366 72.2066 3.33984C71.908 3.13603 71.6765 2.84871 71.5412 2.51411C71.4059 2.1795 71.3729 1.81255 71.4462 1.45925C71.5195 1.10596 71.6958 0.782135 71.9532 0.528513C72.2105 0.274891 72.5374 0.102743 72.8926 0.0337614C73.2478 -0.0352199 73.6155 0.00201559 73.9496 0.140786C74.2836 0.279556 74.5689 0.513685 74.7699 0.813716C74.9708 1.11375 75.0784 1.46632 75.0789 1.82709C75.0757 2.31582 74.8781 2.78326 74.5294 3.12684C74.1808 3.47042 73.7096 3.66203 73.2194 3.65961ZM73.2194 20.7617C72.8573 20.757 72.5048 20.6456 72.2061 20.4416C71.9074 20.2375 71.6759 19.9499 71.5408 19.615C71.4056 19.2801 71.3728 18.9128 71.4466 18.5594C71.5203 18.2059 71.6972 17.8822 71.9551 17.6287C72.213 17.3753 72.5403 17.2036 72.8958 17.1352C73.2514 17.0669 73.6193 17.1049 73.9532 17.2445C74.2872 17.3841 74.5722 17.619 74.7725 17.9197C74.9728 18.2205 75.0794 18.5736 75.0789 18.9346C75.0745 19.4224 74.8764 19.8887 74.5279 20.2312C74.1793 20.5737 73.7088 20.7644 73.2194 20.7617ZM73.2194 37.8692C72.8573 37.8645 72.5048 37.7531 72.2061 37.549C71.9074 37.345 71.6759 37.0574 71.5408 36.7225C71.4056 36.3875 71.3728 36.0203 71.4466 35.6668C71.5203 35.3134 71.6972 34.9896 71.9551 34.7362C72.213 34.4828 72.5403 34.3111 72.8958 34.2427C73.2514 34.1743 73.6193 34.2124 73.9532 34.3519C74.2872 34.4915 74.5722 34.7264 74.7725 35.0272C74.9728 35.3279 75.0794 35.681 75.0789 36.042C75.0745 36.5299 74.8764 36.9962 74.5279 37.3386C74.1793 37.6811 73.7088 37.8719 73.2194 37.8692ZM73.2194 54.9767C72.8575 54.9719 72.5052 54.8607 72.2066 54.6568C71.908 54.453 71.6765 54.1658 71.5412 53.8312C71.4059 53.4966 71.3729 53.1295 71.4462 52.7762C71.5195 52.423 71.6958 52.0991 71.9532 51.8455C72.2105 51.5919 72.5374 51.4198 72.8926 51.3508C73.2478 51.2818 73.6155 51.3191 73.9496 51.4579C74.2836 51.5966 74.5689 51.8307 74.7699 52.1308C74.9708 52.4308 75.0784 52.7833 75.0789 53.1441C75.0748 53.6325 74.877 54.0995 74.5285 54.4429C74.18 54.7863 73.7093 54.9782 73.2194 54.9767ZM73.2194 72.0788C72.8573 72.074 72.5048 71.9626 72.2061 71.7586C71.9074 71.5545 71.6759 71.267 71.5408 70.932C71.4056 70.5971 71.3728 70.2299 71.4466 69.8764C71.5203 69.523 71.6972 69.1992 71.9551 68.9458C72.213 68.6924 72.5403 68.5207 72.8958 68.4523C73.2514 68.3839 73.6193 68.4219 73.9532 68.5615C74.2872 68.701 74.5722 68.936 74.7725 69.2367C74.9728 69.5375 75.0794 69.8905 75.0789 70.2515C75.0745 70.7394 74.8764 71.2057 74.5279 71.5482C74.1793 71.8907 73.7088 72.0815 73.2194 72.0788ZM73.2194 89.1863C72.8573 89.1815 72.5048 89.0701 72.2061 88.866C71.9074 88.662 71.6759 88.3744 71.5408 88.0395C71.4056 87.7046 71.3728 87.3373 71.4466 86.9839C71.5203 86.6304 71.6972 86.3066 71.9551 86.0532C72.213 85.7998 72.5403 85.6281 72.8958 85.5598C73.2514 85.4914 73.6193 85.5293 73.9532 85.6689C74.2872 85.8085 74.5722 86.0435 74.7725 86.3442C74.9728 86.6449 75.0794 86.998 75.0789 87.359C75.0745 87.8469 74.8764 88.3131 74.5279 88.6556C74.1793 88.9981 73.7088 89.189 73.2194 89.1863ZM73.2194 106.294C72.8575 106.289 72.5052 106.178 72.2066 105.974C71.908 105.77 71.6765 105.483 71.5412 105.148C71.4059 104.814 71.3729 104.447 71.4462 104.093C71.5195 103.74 71.6958 103.416 71.9532 103.163C72.2105 102.909 72.5374 102.737 72.8926 102.668C73.2478 102.599 73.6155 102.636 73.9496 102.775C74.2836 102.914 74.5689 103.148 74.7699 103.448C74.9708 103.748 75.0784 104.1 75.0789 104.461C75.0748 104.95 74.877 105.417 74.5285 105.76C74.18 106.103 73.7093 106.295 73.2194 106.294ZM73.2194 123.396C72.8573 123.391 72.5048 123.28 72.2061 123.076C71.9074 122.872 71.6759 122.584 71.5408 122.249C71.4056 121.914 71.3728 121.547 71.4466 121.193C71.5203 120.84 71.6972 120.516 71.9551 120.263C72.213 120.009 72.5403 119.838 72.8958 119.769C73.2514 119.701 73.6193 119.739 73.9532 119.879C74.2872 120.018 74.5722 120.253 74.7725 120.554C74.9728 120.855 75.0794 121.208 75.0789 121.569C75.0745 122.057 74.8764 122.523 74.5279 122.865C74.1793 123.208 73.7088 123.398 73.2194 123.396ZM58.9324 3.65961C58.5709 3.65382 58.219 3.54168 57.9211 3.33723C57.6232 3.13279 57.3927 2.8452 57.2582 2.51052C57.1237 2.17584 57.0913 1.80899 57.1651 1.45606C57.239 1.10312 57.4159 0.779843 57.6734 0.526752C57.931 0.273661 58.2578 0.102059 58.6128 0.0335005C58.9679 -0.0350585 59.3353 0.00245908 59.669 0.141373C60.0028 0.280286 60.2879 0.514399 60.4886 0.814303C60.6893 1.11421 60.7968 1.46655 60.7974 1.82709C60.7964 2.06972 60.7473 2.30977 60.6529 2.53341C60.5585 2.75705 60.4207 2.95984 60.2473 3.13016C60.074 3.30049 59.8685 3.43498 59.6429 3.52585C59.4172 3.61671 59.1758 3.66215 58.9324 3.65961ZM58.9324 20.7617C58.5706 20.7559 58.2186 20.6436 57.9206 20.439C57.6226 20.2343 57.392 19.9464 57.2576 19.6114C57.1233 19.2764 57.0912 18.9093 57.1655 18.5562C57.2399 18.2031 57.4173 17.8799 57.6754 17.627C57.9335 17.3741 58.2608 17.2029 58.6162 17.135C58.9716 17.067 59.3392 17.1053 59.6728 17.2451C60.0065 17.3848 60.2911 17.6197 60.4912 17.9203C60.6913 18.2209 60.7978 18.5738 60.7974 18.9346C60.7958 19.1768 60.7463 19.4163 60.6516 19.6394C60.5569 19.8625 60.4191 20.0647 60.2458 20.2345C60.0725 20.4043 59.8672 20.5383 59.6418 20.6288C59.4165 20.7192 59.1754 20.7644 58.9324 20.7617ZM58.9324 37.8692C58.5706 37.8634 58.2186 37.7511 57.9206 37.5464C57.6226 37.3418 57.392 37.0539 57.2576 36.7189C57.1233 36.3839 57.0912 36.0168 57.1655 35.6637C57.2399 35.3106 57.4173 34.9873 57.6754 34.7345C57.9335 34.4816 58.2608 34.3104 58.6162 34.2424C58.9716 34.1745 59.3392 34.2127 59.6728 34.3525C60.0065 34.4922 60.2911 34.7271 60.4912 35.0277C60.6913 35.3283 60.7978 35.6812 60.7974 36.042C60.7958 36.2842 60.7463 36.5238 60.6516 36.7469C60.5569 36.9699 60.4191 37.1722 60.2458 37.342C60.0725 37.5118 59.8672 37.6457 59.6418 37.7362C59.4165 37.8267 59.1754 37.8719 58.9324 37.8692ZM58.9324 54.9767C58.5709 54.9709 58.219 54.8587 57.9211 54.6543C57.6232 54.4499 57.3927 54.1622 57.2582 53.8275C57.1237 53.4928 57.0913 53.1261 57.1651 52.7731C57.239 52.4202 57.4159 52.0968 57.6734 51.8438C57.931 51.5907 58.2578 51.4191 58.6128 51.3505C58.9679 51.2819 59.3353 51.3195 59.669 51.4584C60.0028 51.5973 60.2879 51.8314 60.4886 52.1313C60.6893 52.4312 60.7968 52.7835 60.7974 53.1441C60.7959 53.3866 60.7464 53.6264 60.6519 53.8498C60.5573 54.0732 60.4194 54.2759 60.2462 54.4461C60.0729 54.6163 59.8678 54.7508 59.6424 54.8419C59.4169 54.9329 59.1757 54.9787 58.9324 54.9767ZM58.9324 72.0788C58.5706 72.073 58.2186 71.9607 57.9206 71.756C57.6226 71.5513 57.392 71.2634 57.2576 70.9284C57.1233 70.5934 57.0912 70.2263 57.1655 69.8732C57.2399 69.5201 57.4173 69.1969 57.6754 68.944C57.9335 68.6911 58.2608 68.52 58.6162 68.452C58.9716 68.3841 59.3392 68.4223 59.6728 68.562C60.0065 68.7018 60.2911 68.9367 60.4912 69.2373C60.6913 69.5379 60.7978 69.8908 60.7974 70.2515C60.7958 70.4938 60.7463 70.7334 60.6516 70.9564C60.5569 71.1795 60.4191 71.3818 60.2458 71.5516C60.0725 71.7213 59.8672 71.8553 59.6418 71.9458C59.4165 72.0363 59.1754 72.0815 58.9324 72.0788ZM58.9324 89.1863C58.5706 89.1805 58.2186 89.0682 57.9206 88.8635C57.6226 88.6588 57.392 88.3708 57.2576 88.0359C57.1233 87.7009 57.0912 87.3338 57.1655 86.9807C57.2399 86.6276 57.4173 86.3043 57.6754 86.0514C57.9335 85.7986 58.2608 85.6274 58.6162 85.5594C58.9716 85.4915 59.3392 85.5298 59.6728 85.6695C60.0065 85.8092 60.2911 86.0442 60.4912 86.3448C60.6913 86.6454 60.7978 86.9983 60.7974 87.359C60.7958 87.6012 60.7463 87.8408 60.6516 88.0638C60.5569 88.2869 60.4191 88.4892 60.2458 88.659C60.0725 88.8288 59.8672 88.9627 59.6418 89.0532C59.4165 89.1437 59.1754 89.1889 58.9324 89.1863ZM58.9324 106.294C58.5709 106.288 58.219 106.176 57.9211 105.971C57.6232 105.767 57.3927 105.479 57.2582 105.145C57.1237 104.81 57.0913 104.443 57.1651 104.09C57.239 103.737 57.4159 103.414 57.6734 103.161C57.931 102.908 58.2578 102.736 58.6128 102.668C58.9679 102.599 59.3353 102.637 59.669 102.775C60.0028 102.914 60.2879 103.148 60.4886 103.448C60.6893 103.748 60.7968 104.101 60.7974 104.461C60.7959 104.704 60.7464 104.943 60.6519 105.167C60.5573 105.39 60.4194 105.593 60.2462 105.763C60.0729 105.933 59.8678 106.068 59.6424 106.159C59.4169 106.25 59.1757 106.296 58.9324 106.294ZM58.9324 123.396C58.5706 123.39 58.2186 123.278 57.9206 123.073C57.6226 122.868 57.392 122.58 57.2576 122.245C57.1233 121.91 57.0912 121.543 57.1655 121.19C57.2399 120.837 57.4173 120.514 57.6754 120.261C57.9335 120.008 58.2608 119.837 58.6162 119.769C58.9716 119.701 59.3392 119.739 59.6728 119.879C60.0065 120.019 60.2911 120.254 60.4912 120.554C60.6913 120.855 60.7978 121.208 60.7974 121.569C60.7958 121.811 60.7463 122.05 60.6516 122.273C60.5569 122.497 60.4191 122.699 60.2458 122.869C60.0725 123.038 59.8672 123.172 59.6418 123.263C59.4165 123.353 59.1754 123.398 58.9324 123.396ZM44.6508 3.65961C44.2892 3.65382 43.9374 3.54168 43.6395 3.33723C43.3417 3.13279 43.111 2.8452 42.9765 2.51052C42.842 2.17584 42.8097 1.80899 42.8836 1.45606C42.9575 1.10312 43.1343 0.779843 43.3919 0.526752C43.6494 0.273661 43.9762 0.102059 44.3313 0.0335005C44.6863 -0.0350585 45.0538 0.00245908 45.3875 0.141373C45.7212 0.280286 46.0063 0.514399 46.207 0.814303C46.4078 1.11421 46.5152 1.46655 46.5158 1.82709C46.5148 2.06972 46.4656 2.30977 46.3712 2.53341C46.2768 2.75705 46.139 2.95984 45.9656 3.13016C45.7923 3.30049 45.587 3.43498 45.3613 3.52585C45.1357 3.61671 44.8941 3.66215 44.6508 3.65961ZM44.6508 20.7617C44.2889 20.7559 43.937 20.6436 43.639 20.439C43.341 20.2343 43.1103 19.9464 42.976 19.6114C42.8416 19.2764 42.8096 18.9093 42.884 18.5562C42.9583 18.2031 43.1357 17.8799 43.3938 17.627C43.6519 17.3741 43.9791 17.2029 44.3345 17.135C44.6899 17.067 45.0575 17.1053 45.3911 17.2451C45.7248 17.3848 46.0096 17.6197 46.2096 17.9203C46.4097 18.2209 46.5163 18.5738 46.5158 18.9346C46.5143 19.1768 46.4647 19.4163 46.37 19.6394C46.2754 19.8625 46.1374 20.0647 45.9641 20.2345C45.7908 20.4043 45.5856 20.5383 45.3603 20.6288C45.1349 20.7192 44.8937 20.7644 44.6508 20.7617ZM44.6508 37.8692C44.2889 37.8634 43.937 37.7511 43.639 37.5464C43.341 37.3418 43.1103 37.0539 42.976 36.7189C42.8416 36.3839 42.8096 36.0168 42.884 35.6637C42.9583 35.3106 43.1357 34.9873 43.3938 34.7345C43.6519 34.4816 43.9791 34.3104 44.3345 34.2424C44.6899 34.1745 45.0575 34.2127 45.3911 34.3525C45.7248 34.4922 46.0096 34.7271 46.2096 35.0277C46.4097 35.3283 46.5163 35.6812 46.5158 36.042C46.5143 36.2842 46.4647 36.5238 46.37 36.7469C46.2754 36.9699 46.1374 37.1722 45.9641 37.342C45.7908 37.5118 45.5856 37.6457 45.3603 37.7362C45.1349 37.8267 44.8937 37.8719 44.6508 37.8692ZM44.6508 54.9767C44.2892 54.9709 43.9374 54.8587 43.6395 54.6543C43.3417 54.4499 43.111 54.1622 42.9765 53.8275C42.842 53.4928 42.8097 53.1261 42.8836 52.7731C42.9575 52.4202 43.1343 52.0968 43.3919 51.8438C43.6494 51.5907 43.9762 51.4191 44.3313 51.3505C44.6863 51.2819 45.0538 51.3195 45.3875 51.4584C45.7212 51.5973 46.0063 51.8314 46.207 52.1313C46.4078 52.4312 46.5152 52.7835 46.5158 53.1441C46.5143 53.3866 46.4649 53.6264 46.3703 53.8498C46.2757 54.0732 46.1378 54.2759 45.9646 54.4461C45.7914 54.6163 45.5861 54.7508 45.3607 54.8419C45.1352 54.9329 44.894 54.9787 44.6508 54.9767ZM44.6508 72.0788C44.2889 72.073 43.937 71.9607 43.639 71.756C43.341 71.5513 43.1103 71.2634 42.976 70.9284C42.8416 70.5934 42.8096 70.2263 42.884 69.8732C42.9583 69.5201 43.1357 69.1969 43.3938 68.944C43.6519 68.6911 43.9791 68.52 44.3345 68.452C44.6899 68.3841 45.0575 68.4223 45.3911 68.562C45.7248 68.7018 46.0096 68.9367 46.2096 69.2373C46.4097 69.5379 46.5163 69.8908 46.5158 70.2515C46.5143 70.4938 46.4647 70.7334 46.37 70.9564C46.2754 71.1795 46.1374 71.3818 45.9641 71.5516C45.7908 71.7213 45.5856 71.8553 45.3603 71.9458C45.1349 72.0363 44.8937 72.0815 44.6508 72.0788ZM44.6508 89.1863C44.2889 89.1805 43.937 89.0682 43.639 88.8635C43.341 88.6588 43.1103 88.3708 42.976 88.0359C42.8416 87.7009 42.8096 87.3338 42.884 86.9807C42.9583 86.6276 43.1357 86.3043 43.3938 86.0514C43.6519 85.7986 43.9791 85.6274 44.3345 85.5594C44.6899 85.4915 45.0575 85.5298 45.3911 85.6695C45.7248 85.8092 46.0096 86.0442 46.2096 86.3448C46.4097 86.6454 46.5163 86.9983 46.5158 87.359C46.5143 87.6012 46.4647 87.8408 46.37 88.0638C46.2754 88.2869 46.1374 88.4892 45.9641 88.659C45.7908 88.8288 45.5856 88.9627 45.3603 89.0532C45.1349 89.1437 44.8937 89.1889 44.6508 89.1863ZM44.6508 106.294C44.2892 106.288 43.9374 106.176 43.6395 105.971C43.3417 105.767 43.111 105.479 42.9765 105.145C42.842 104.81 42.8097 104.443 42.8836 104.09C42.9575 103.737 43.1343 103.414 43.3919 103.161C43.6494 102.908 43.9762 102.736 44.3313 102.668C44.6863 102.599 45.0538 102.637 45.3875 102.775C45.7212 102.914 46.0063 103.148 46.207 103.448C46.4078 103.748 46.5152 104.101 46.5158 104.461C46.5143 104.704 46.4649 104.943 46.3703 105.167C46.2757 105.39 46.1378 105.593 45.9646 105.763C45.7914 105.933 45.5861 106.068 45.3607 106.159C45.1352 106.25 44.894 106.296 44.6508 106.294ZM44.6508 123.396C44.2889 123.39 43.937 123.278 43.639 123.073C43.341 122.868 43.1103 122.58 42.976 122.245C42.8416 121.91 42.8096 121.543 42.884 121.19C42.9583 120.837 43.1357 120.514 43.3938 120.261C43.6519 120.008 43.9791 119.837 44.3345 119.769C44.6899 119.701 45.0575 119.739 45.3911 119.879C45.7248 120.019 46.0096 120.254 46.2096 120.554C46.4097 120.855 46.5163 121.208 46.5158 121.569C46.5143 121.811 46.4647 122.05 46.37 122.273C46.2754 122.497 46.1374 122.699 45.9641 122.869C45.7908 123.038 45.5856 123.172 45.3603 123.263C45.1349 123.353 44.8937 123.398 44.6508 123.396ZM30.3692 3.65961C30.0076 3.65382 29.6559 3.54168 29.358 3.33723C29.0601 3.13279 28.8294 2.8452 28.6949 2.51052C28.5604 2.17584 28.5281 1.80899 28.602 1.45606C28.6759 1.10312 28.8527 0.779843 29.1103 0.526752C29.3679 0.273661 29.6947 0.102059 30.0497 0.0335005C30.4047 -0.0350585 30.7722 0.00245908 31.1059 0.141373C31.4396 0.280286 31.7247 0.514399 31.9255 0.814303C32.1262 1.11421 32.2335 1.46655 32.2341 1.82709C32.2331 2.06972 32.1841 2.30977 32.0897 2.53341C31.9953 2.75705 31.8574 2.95984 31.6841 3.13016C31.5107 3.30049 31.3053 3.43498 31.0796 3.52585C30.854 3.61671 30.6126 3.66215 30.3692 3.65961ZM30.3692 20.7617C30.0074 20.7559 29.6553 20.6436 29.3573 20.439C29.0593 20.2343 28.8287 19.9464 28.6944 19.6114C28.5601 19.2764 28.5281 18.9093 28.6024 18.5562C28.6767 18.2031 28.854 17.8799 29.1121 17.627C29.3702 17.3741 29.6976 17.2029 30.053 17.135C30.4084 17.067 30.776 17.1053 31.1096 17.2451C31.4432 17.3848 31.728 17.6197 31.9281 17.9203C32.1282 18.2209 32.2346 18.5738 32.2341 18.9346C32.2326 19.1768 32.183 19.4163 32.0883 19.6394C31.9937 19.8625 31.8558 20.0647 31.6825 20.2345C31.5092 20.4043 31.3039 20.5383 31.0786 20.6288C30.8532 20.7192 30.6121 20.7644 30.3692 20.7617ZM30.3692 37.8692C30.0074 37.8634 29.6553 37.7511 29.3573 37.5464C29.0593 37.3418 28.8287 37.0539 28.6944 36.7189C28.5601 36.3839 28.5281 36.0168 28.6024 35.6637C28.6767 35.3106 28.854 34.9873 29.1121 34.7345C29.3702 34.4816 29.6976 34.3104 30.053 34.2424C30.4084 34.1745 30.776 34.2127 31.1096 34.3525C31.4432 34.4922 31.728 34.7271 31.9281 35.0277C32.1282 35.3283 32.2346 35.6812 32.2341 36.042C32.2326 36.2842 32.183 36.5238 32.0883 36.7469C31.9937 36.9699 31.8558 37.1722 31.6825 37.342C31.5092 37.5118 31.3039 37.6457 31.0786 37.7362C30.8532 37.8267 30.6121 37.8719 30.3692 37.8692ZM30.3692 54.9767C30.0076 54.9709 29.6559 54.8587 29.358 54.6543C29.0601 54.4499 28.8294 54.1622 28.6949 53.8275C28.5604 53.4928 28.5281 53.1261 28.602 52.7731C28.6759 52.4202 28.8527 52.0968 29.1103 51.8438C29.3679 51.5907 29.6947 51.4191 30.0497 51.3505C30.4047 51.2819 30.7722 51.3195 31.1059 51.4584C31.4396 51.5973 31.7247 51.8314 31.9255 52.1313C32.1262 52.4312 32.2335 52.7835 32.2341 53.1441C32.2326 53.3866 32.1832 53.6264 32.0886 53.8498C31.994 54.0732 31.8563 54.2759 31.683 54.4461C31.5098 54.6163 31.3045 54.7508 31.0791 54.8419C30.8537 54.9329 30.6124 54.9787 30.3692 54.9767ZM30.3692 72.0788C30.0074 72.073 29.6553 71.9607 29.3573 71.756C29.0593 71.5513 28.8287 71.2634 28.6944 70.9284C28.5601 70.5934 28.5281 70.2263 28.6024 69.8732C28.6767 69.5201 28.854 69.1969 29.1121 68.944C29.3702 68.6911 29.6976 68.52 30.053 68.452C30.4084 68.3841 30.776 68.4223 31.1096 68.562C31.4432 68.7018 31.728 68.9367 31.9281 69.2373C32.1282 69.5379 32.2346 69.8908 32.2341 70.2515C32.2326 70.4938 32.183 70.7334 32.0883 70.9564C31.9937 71.1795 31.8558 71.3818 31.6825 71.5516C31.5092 71.7213 31.3039 71.8553 31.0786 71.9458C30.8532 72.0363 30.6121 72.0815 30.3692 72.0788ZM30.3692 89.1863C30.0074 89.1805 29.6553 89.0682 29.3573 88.8635C29.0593 88.6588 28.8287 88.3708 28.6944 88.0359C28.5601 87.7009 28.5281 87.3338 28.6024 86.9807C28.6767 86.6276 28.854 86.3043 29.1121 86.0514C29.3702 85.7986 29.6976 85.6274 30.053 85.5594C30.4084 85.4915 30.776 85.5298 31.1096 85.6695C31.4432 85.8092 31.728 86.0442 31.9281 86.3448C32.1282 86.6454 32.2346 86.9983 32.2341 87.359C32.2326 87.6012 32.183 87.8408 32.0883 88.0638C31.9937 88.2869 31.8558 88.4892 31.6825 88.659C31.5092 88.8288 31.3039 88.9627 31.0786 89.0532C30.8532 89.1437 30.6121 89.1889 30.3692 89.1863ZM30.3692 106.294C30.0076 106.288 29.6559 106.176 29.358 105.971C29.0601 105.767 28.8294 105.479 28.6949 105.145C28.5604 104.81 28.5281 104.443 28.602 104.09C28.6759 103.737 28.8527 103.414 29.1103 103.161C29.3679 102.908 29.6947 102.736 30.0497 102.668C30.4047 102.599 30.7722 102.637 31.1059 102.775C31.4396 102.914 31.7247 103.148 31.9255 103.448C32.1262 103.748 32.2335 104.101 32.2341 104.461C32.2326 104.704 32.1832 104.943 32.0886 105.167C31.994 105.39 31.8563 105.593 31.683 105.763C31.5098 105.933 31.3045 106.068 31.0791 106.159C30.8537 106.25 30.6124 106.296 30.3692 106.294ZM30.3692 123.396C30.0074 123.39 29.6553 123.278 29.3573 123.073C29.0593 122.868 28.8287 122.58 28.6944 122.245C28.5601 121.91 28.5281 121.543 28.6024 121.19C28.6767 120.837 28.854 120.514 29.1121 120.261C29.3702 120.008 29.6976 119.837 30.053 119.769C30.4084 119.701 30.776 119.739 31.1096 119.879C31.4432 120.019 31.728 120.254 31.9281 120.554C32.1282 120.855 32.2346 121.208 32.2341 121.569C32.2326 121.811 32.183 122.05 32.0883 122.273C31.9937 122.497 31.8558 122.699 31.6825 122.869C31.5092 123.038 31.3039 123.172 31.0786 123.263C30.8532 123.353 30.6121 123.398 30.3692 123.396ZM16.0876 3.65961C15.726 3.65382 15.3742 3.54168 15.0763 3.33723C14.7784 3.13279 14.5477 2.8452 14.4132 2.51052C14.2787 2.17584 14.2464 1.80899 14.3203 1.45606C14.3942 1.10312 14.5711 0.779843 14.8286 0.526752C15.0862 0.273661 15.413 0.102059 15.768 0.0335005C16.123 -0.0350585 16.4905 0.00245908 16.8242 0.141373C17.1579 0.280286 17.443 0.514399 17.6438 0.814303C17.8445 1.11421 17.952 1.46655 17.9525 1.82709C17.9516 2.06972 17.9024 2.30977 17.808 2.53341C17.7136 2.75705 17.5758 2.95984 17.4025 3.13016C17.2292 3.30049 17.0237 3.43498 16.7981 3.52585C16.5724 3.61671 16.331 3.66215 16.0876 3.65961ZM16.0876 20.7617C15.7258 20.7559 15.3737 20.6436 15.0758 20.439C14.7778 20.2343 14.5472 19.9464 14.4128 19.6114C14.2785 19.2764 14.2464 18.9093 14.3207 18.5562C14.395 18.2031 14.5725 17.8799 14.8306 17.627C15.0887 17.3741 15.4159 17.2029 15.7713 17.135C16.1267 17.067 16.4943 17.1053 16.8279 17.2451C17.1615 17.3848 17.4463 17.6197 17.6464 17.9203C17.8465 18.2209 17.953 18.5738 17.9525 18.9346C17.951 19.1768 17.9014 19.4163 17.8068 19.6394C17.7121 19.8625 17.5742 20.0647 17.4009 20.2345C17.2276 20.4043 17.0224 20.5383 16.797 20.6288C16.5716 20.7192 16.3306 20.7644 16.0876 20.7617ZM16.0876 37.8692C15.7258 37.8634 15.3737 37.7511 15.0758 37.5464C14.7778 37.3418 14.5472 37.0539 14.4128 36.7189C14.2785 36.3839 14.2464 36.0168 14.3207 35.6637C14.395 35.3106 14.5725 34.9873 14.8306 34.7345C15.0887 34.4816 15.4159 34.3104 15.7713 34.2424C16.1267 34.1745 16.4943 34.2127 16.8279 34.3525C17.1615 34.4922 17.4463 34.7271 17.6464 35.0277C17.8465 35.3283 17.953 35.6812 17.9525 36.042C17.951 36.2842 17.9014 36.5238 17.8068 36.7469C17.7121 36.9699 17.5742 37.1722 17.4009 37.342C17.2276 37.5118 17.0224 37.6457 16.797 37.7362C16.5716 37.8267 16.3306 37.8719 16.0876 37.8692ZM16.0876 54.9767C15.726 54.9709 15.3742 54.8587 15.0763 54.6543C14.7784 54.4499 14.5477 54.1622 14.4132 53.8275C14.2787 53.4928 14.2464 53.1261 14.3203 52.7731C14.3942 52.4202 14.5711 52.0968 14.8286 51.8438C15.0862 51.5907 15.413 51.4191 15.768 51.3505C16.123 51.2819 16.4905 51.3195 16.8242 51.4584C17.1579 51.5973 17.443 51.8314 17.6438 52.1313C17.8445 52.4312 17.952 52.7835 17.9525 53.1441C17.9511 53.3866 17.9016 53.6264 17.807 53.8498C17.7125 54.0732 17.5746 54.2759 17.4013 54.4461C17.2281 54.6163 17.023 54.7508 16.7975 54.8419C16.5721 54.9329 16.3309 54.9787 16.0876 54.9767ZM16.0876 72.0788C15.7258 72.073 15.3737 71.9607 15.0758 71.756C14.7778 71.5513 14.5472 71.2634 14.4128 70.9284C14.2785 70.5934 14.2464 70.2263 14.3207 69.8732C14.395 69.5201 14.5725 69.1969 14.8306 68.944C15.0887 68.6911 15.4159 68.52 15.7713 68.452C16.1267 68.3841 16.4943 68.4223 16.8279 68.562C17.1615 68.7018 17.4463 68.9367 17.6464 69.2373C17.8465 69.5379 17.953 69.8908 17.9525 70.2515C17.951 70.4938 17.9014 70.7334 17.8068 70.9564C17.7121 71.1795 17.5742 71.3818 17.4009 71.5516C17.2276 71.7213 17.0224 71.8553 16.797 71.9458C16.5716 72.0363 16.3306 72.0815 16.0876 72.0788ZM16.0876 89.1863C15.7258 89.1805 15.3737 89.0682 15.0758 88.8635C14.7778 88.6588 14.5472 88.3708 14.4128 88.0359C14.2785 87.7009 14.2464 87.3338 14.3207 86.9807C14.395 86.6276 14.5725 86.3043 14.8306 86.0514C15.0887 85.7986 15.4159 85.6274 15.7713 85.5594C16.1267 85.4915 16.4943 85.5298 16.8279 85.6695C17.1615 85.8092 17.4463 86.0442 17.6464 86.3448C17.8465 86.6454 17.953 86.9983 17.9525 87.359C17.951 87.6012 17.9014 87.8408 17.8068 88.0638C17.7121 88.2869 17.5742 88.4892 17.4009 88.659C17.2276 88.8288 17.0224 88.9627 16.797 89.0532C16.5716 89.1437 16.3306 89.1889 16.0876 89.1863ZM16.0876 106.294C15.726 106.288 15.3742 106.176 15.0763 105.971C14.7784 105.767 14.5477 105.479 14.4132 105.145C14.2787 104.81 14.2464 104.443 14.3203 104.09C14.3942 103.737 14.5711 103.414 14.8286 103.161C15.0862 102.908 15.413 102.736 15.768 102.668C16.123 102.599 16.4905 102.637 16.8242 102.775C17.1579 102.914 17.443 103.148 17.6438 103.448C17.8445 103.748 17.952 104.101 17.9525 104.461C17.9511 104.704 17.9016 104.943 17.807 105.167C17.7125 105.39 17.5746 105.593 17.4013 105.763C17.2281 105.933 17.023 106.068 16.7975 106.159C16.5721 106.25 16.3309 106.296 16.0876 106.294ZM16.0876 123.396C15.7258 123.39 15.3737 123.278 15.0758 123.073C14.7778 122.868 14.5472 122.58 14.4128 122.245C14.2785 121.91 14.2464 121.543 14.3207 121.19C14.395 120.837 14.5725 120.514 14.8306 120.261C15.0887 120.008 15.4159 119.837 15.7713 119.769C16.1267 119.701 16.4943 119.739 16.8279 119.879C17.1615 120.019 17.4463 120.254 17.6464 120.554C17.8465 120.855 17.953 121.208 17.9525 121.569C17.951 121.811 17.9014 122.05 17.8068 122.273C17.7121 122.497 17.5742 122.699 17.4009 122.869C17.2276 123.038 17.0224 123.172 16.797 123.263C16.5716 123.353 16.3306 123.398 16.0876 123.396ZM1.80593 3.65961C1.44434 3.65382 1.09253 3.54168 0.794651 3.33723C0.496773 3.13279 0.266142 2.8452 0.13165 2.51052C-0.00284116 2.17584 -0.0351394 1.80899 0.0387582 1.45606C0.112656 1.10312 0.289423 0.779843 0.546982 0.526752C0.804542 0.273661 1.1314 0.102059 1.48644 0.0335005C1.84147 -0.0350585 2.20894 0.00245908 2.54266 0.141373C2.87637 0.280286 3.16147 0.514399 3.3622 0.814303C3.56293 1.11421 3.67026 1.46655 3.67084 1.82709C3.66986 2.06972 3.62079 2.30977 3.5264 2.53341C3.432 2.75705 3.29414 2.95984 3.12081 3.13016C2.94748 3.30049 2.74215 3.43498 2.51649 3.52585C2.29083 3.61671 2.04929 3.66215 1.80593 3.65961ZM1.80593 20.7617C1.44411 20.7559 1.09212 20.6436 0.794128 20.439C0.496137 20.2343 0.265458 19.9464 0.131127 19.6114C-0.00320422 19.2764 -0.0351812 18.9093 0.0391507 18.5562C0.113483 18.2031 0.290852 17.8799 0.548945 17.627C0.807037 17.3741 1.13432 17.2029 1.48971 17.135C1.84509 17.067 2.2127 17.1053 2.54632 17.2451C2.87994 17.3848 3.16473 17.6197 3.36482 17.9203C3.5649 18.2209 3.67132 18.5738 3.67084 18.9346C3.6693 19.1768 3.61988 19.4163 3.52522 19.6394C3.43056 19.8625 3.29253 20.0647 3.11924 20.2345C2.94595 20.4043 2.74069 20.5383 2.51531 20.6288C2.28994 20.7192 2.04888 20.7644 1.80593 20.7617ZM1.80593 37.8692C1.44411 37.8634 1.09212 37.7511 0.794128 37.5464C0.496137 37.3418 0.265458 37.0539 0.131127 36.7189C-0.00320422 36.3839 -0.0351812 36.0168 0.0391507 35.6637C0.113483 35.3106 0.290852 34.9873 0.548945 34.7345C0.807037 34.4816 1.13432 34.3104 1.48971 34.2424C1.84509 34.1745 2.2127 34.2127 2.54632 34.3525C2.87994 34.4922 3.16473 34.7271 3.36482 35.0277C3.5649 35.3283 3.67132 35.6812 3.67084 36.042C3.6693 36.2842 3.61988 36.5238 3.52522 36.7469C3.43056 36.9699 3.29253 37.1722 3.11924 37.342C2.94595 37.5118 2.74069 37.6457 2.51531 37.7362C2.28994 37.8267 2.04888 37.8719 1.80593 37.8692ZM1.80593 54.9767C1.44434 54.9709 1.09253 54.8587 0.794651 54.6543C0.496773 54.4499 0.266142 54.1622 0.13165 53.8275C-0.00284116 53.4928 -0.0351394 53.1261 0.0387582 52.7731C0.112656 52.4202 0.289423 52.0968 0.546982 51.8438C0.804542 51.5907 1.1314 51.4191 1.48644 51.3505C1.84147 51.2819 2.20894 51.3195 2.54266 51.4584C2.87637 51.5973 3.16147 51.8314 3.3622 52.1313C3.56293 52.4312 3.67026 52.7835 3.67084 53.1441C3.66937 53.3866 3.61992 53.6264 3.52535 53.8498C3.43078 54.0732 3.293 54.2759 3.11977 54.4461C2.94653 54.6163 2.74128 54.7508 2.51584 54.8419C2.2904 54.9329 2.04916 54.9787 1.80593 54.9767ZM1.80593 72.0788C1.44411 72.073 1.09212 71.9607 0.794128 71.756C0.496137 71.5513 0.265458 71.2634 0.131127 70.9284C-0.00320422 70.5934 -0.0351812 70.2263 0.0391507 69.8732C0.113483 69.5201 0.290852 69.1969 0.548945 68.944C0.807037 68.6911 1.13432 68.52 1.48971 68.452C1.84509 68.3841 2.2127 68.4223 2.54632 68.562C2.87994 68.7018 3.16473 68.9367 3.36482 69.2373C3.5649 69.5379 3.67132 69.8908 3.67084 70.2515C3.6693 70.4938 3.61988 70.7334 3.52522 70.9564C3.43056 71.1795 3.29253 71.3818 3.11924 71.5516C2.94595 71.7213 2.74069 71.8553 2.51531 71.9458C2.28994 72.0363 2.04888 72.0815 1.80593 72.0788ZM1.80593 89.1863C1.44411 89.1805 1.09212 89.0682 0.794128 88.8635C0.496137 88.6588 0.265458 88.3708 0.131127 88.0359C-0.00320422 87.7009 -0.0351812 87.3338 0.0391507 86.9807C0.113483 86.6276 0.290852 86.3043 0.548945 86.0514C0.807037 85.7986 1.13432 85.6274 1.48971 85.5594C1.84509 85.4915 2.2127 85.5298 2.54632 85.6695C2.87994 85.8092 3.16473 86.0442 3.36482 86.3448C3.5649 86.6454 3.67132 86.9983 3.67084 87.359C3.6693 87.6012 3.61988 87.8408 3.52522 88.0638C3.43056 88.2869 3.29253 88.4892 3.11924 88.659C2.94595 88.8288 2.74069 88.9627 2.51531 89.0532C2.28994 89.1437 2.04888 89.1889 1.80593 89.1863ZM1.80593 106.294C1.44434 106.288 1.09253 106.176 0.794651 105.971C0.496773 105.767 0.266142 105.479 0.13165 105.145C-0.00284116 104.81 -0.0351394 104.443 0.0387582 104.09C0.112656 103.737 0.289423 103.414 0.546982 103.161C0.804542 102.908 1.1314 102.736 1.48644 102.668C1.84147 102.599 2.20894 102.637 2.54266 102.775C2.87637 102.914 3.16147 103.148 3.3622 103.448C3.56293 103.748 3.67026 104.101 3.67084 104.461C3.66937 104.704 3.61992 104.943 3.52535 105.167C3.43078 105.39 3.293 105.593 3.11977 105.763C2.94653 105.933 2.74128 106.068 2.51584 106.159C2.2904 106.25 2.04916 106.296 1.80593 106.294ZM1.80593 123.396C1.44411 123.39 1.09212 123.278 0.794128 123.073C0.496137 122.868 0.265458 122.58 0.131127 122.245C-0.00320422 121.91 -0.0351812 121.543 0.0391507 121.19C0.113483 120.837 0.290852 120.514 0.548945 120.261C0.807037 120.008 1.13432 119.837 1.48971 119.769C1.84509 119.701 2.2127 119.739 2.54632 119.879C2.87994 120.019 3.16473 120.254 3.36482 120.554C3.5649 120.855 3.67132 121.208 3.67084 121.569C3.6693 121.811 3.61988 122.05 3.52522 122.273C3.43056 122.497 3.29253 122.699 3.11924 122.869C2.94595 123.038 2.74069 123.172 2.51531 123.263C2.28994 123.353 2.04888 123.398 1.80593 123.396Z" fill="#868EA6"/>
</svg>
