<svg width="94" height="16" viewBox="0 0 94 16" fill="none" xmlns="http://www.w3.org/2000/svg">
<path fill-rule="evenodd" clip-rule="evenodd" d="M27.7816 0.242371C28.6816 0.24814 28.7335 0.830889 28.9989 1.45977C29.5124 2.64829 30.0201 3.83103 30.5336 5.01955C32.1548 5.17533 33.7818 5.3311 35.4031 5.48688C35.6512 5.58496 35.8762 5.85614 35.9339 6.14462C36.0724 6.81388 35.4031 7.14273 35.0915 7.39082C34.1107 8.26778 33.1357 9.13897 32.1549 10.0159C32.4664 11.3602 32.778 12.7046 33.0895 14.0431C33.2338 14.6085 33.2568 15.1855 32.8126 15.4509C32.2991 15.7566 31.7394 15.3585 31.376 15.1393C30.2394 14.4527 29.1028 13.7661 27.972 13.0796C26.8469 13.7315 25.7218 14.3893 24.5968 15.047C24.2506 15.2547 23.7602 15.7451 23.189 15.5143C22.6409 15.2893 22.6294 14.672 22.7851 14.0431C23.0967 12.7046 23.4082 11.3602 23.7198 10.0159C22.7447 9.13897 21.7639 8.26778 20.7889 7.39082C20.4716 7.14273 19.8023 6.81388 19.9465 6.14462C20.0042 5.86191 20.2292 5.58496 20.4773 5.48688C22.0986 5.3311 23.7256 5.17533 25.3468 5.01955C25.993 3.51948 26.6392 2.01941 27.2854 0.519332C27.4469 0.427019 27.6142 0.334683 27.7816 0.242371Z" fill="#F9C100"/>
<path fill-rule="evenodd" clip-rule="evenodd" d="M7.85937 0.242371C8.75942 0.24814 8.81137 0.830889 9.07677 1.45977C9.59025 2.64829 10.098 3.83103 10.6057 5.01955C12.2327 5.17533 13.8539 5.3311 15.4809 5.48688C15.729 5.58496 15.9482 5.85614 16.0117 6.14462C16.1502 6.81388 15.4809 7.14273 15.1694 7.39082C14.1886 8.26778 13.2135 9.13897 12.2327 10.0159C12.5442 11.3602 12.8558 12.7046 13.1673 14.0431C13.3116 14.6085 13.3289 15.1855 12.8904 15.4509C12.3769 15.7566 11.8173 15.3585 11.4538 15.1393C10.3172 14.4527 9.1806 13.7661 8.04978 13.0796C6.92472 13.7315 5.79968 14.3893 4.67462 15.047C4.32845 15.2547 3.83804 15.7451 3.26685 15.5143C2.71875 15.2893 2.70143 14.672 2.86298 14.0431C3.17453 12.7046 3.48609 11.3602 3.79764 10.0159C2.82259 9.13897 1.84176 8.26778 0.866714 7.39082C0.54939 7.14273 -0.119858 6.81388 0.0186109 6.14462C0.0820756 5.86191 0.307077 5.58496 0.549397 5.48688C2.1764 5.3311 3.79764 5.17533 5.42465 5.01955C6.07084 3.51948 6.71701 2.01941 7.35743 0.519332C7.52474 0.427019 7.69205 0.334683 7.85937 0.242371Z" fill="#F9C100"/>
<path fill-rule="evenodd" clip-rule="evenodd" d="M47.7037 0.242371C48.6037 0.24814 48.6557 0.830889 48.9211 1.45977C49.4346 2.64829 49.9423 3.83103 50.4558 5.01955C52.077 5.17533 53.704 5.3311 55.3252 5.48688C55.5733 5.58496 55.7983 5.85614 55.856 6.14462C55.9945 6.81388 55.3253 7.14273 55.0137 7.39082C54.0329 8.26778 53.0578 9.13897 52.077 10.0159C52.3886 11.3602 52.7001 12.7046 53.0117 14.0431C53.1559 14.6085 53.179 15.1855 52.7347 15.4509C52.2213 15.7566 51.6616 15.3585 51.2981 15.1393C50.1615 14.4527 49.0249 13.7661 47.8941 13.0796C46.769 13.7315 45.644 14.3893 44.5189 15.047C44.1728 15.2547 43.6824 15.7451 43.117 15.5143C42.5631 15.2893 42.5515 14.672 42.7073 14.0431C43.0189 12.7046 43.3304 11.3602 43.6477 10.0159C42.6669 9.13897 41.6861 8.26778 40.711 7.39082C40.3937 7.14273 39.7245 6.81388 39.8687 6.14462C39.9264 5.86191 40.1514 5.58496 40.3995 5.48688C42.0207 5.3311 43.6477 5.17533 45.269 5.01955C45.9152 3.51948 46.5613 2.01941 47.2075 0.519332C47.3748 0.427019 47.5364 0.334683 47.7037 0.242371Z" fill="#F9C100"/>
<path fill-rule="evenodd" clip-rule="evenodd" d="M66.6047 0.242371C67.5047 0.24814 67.5566 0.830889 67.822 1.45977C68.3355 2.64829 68.8433 3.83103 69.3567 5.01955C70.978 5.17533 72.605 5.3311 74.2262 5.48688C74.4743 5.58496 74.6993 5.85614 74.757 6.14462C74.8955 6.81388 74.2262 7.14273 73.9146 7.39082C72.9338 8.26778 71.9588 9.13897 70.978 10.0159C71.2895 11.3602 71.6011 12.7046 71.9184 14.0431C72.0569 14.6085 72.08 15.1855 71.6357 15.4509C71.1222 15.7566 70.5626 15.3585 70.1991 15.1393C69.0625 14.4527 67.9259 13.7661 66.7951 13.0796C65.67 13.7315 64.5449 14.3893 63.4199 15.047C63.0737 15.2547 62.5833 15.7451 62.0179 15.5143C61.464 15.2893 61.4525 14.672 61.6083 14.0431C61.9198 12.7046 62.2314 11.3602 62.5487 10.0159C61.5679 9.13897 60.5871 8.26778 59.612 7.39082C59.2947 7.14273 58.6254 6.81388 58.7697 6.14462C58.8273 5.86191 59.0524 5.58496 59.3005 5.48688C60.9217 5.3311 62.5487 5.17533 64.17 5.01955C64.8161 3.51948 65.4623 2.01941 66.1085 0.519332C66.2758 0.427019 66.4374 0.334683 66.6047 0.242371Z" fill="#F9C100"/>
<path fill-rule="evenodd" clip-rule="evenodd" d="M84.9979 0.242371C85.898 0.24814 85.9441 0.830889 86.2153 1.45977C86.723 2.64829 87.2365 3.83103 87.7442 5.01955C89.3712 5.17533 90.9925 5.3311 92.6195 5.48688C92.8676 5.58496 93.0868 5.85614 93.1503 6.14462C93.2887 6.81388 92.6195 7.14273 92.3022 7.39082C91.3271 8.26778 90.3463 9.13897 89.3712 10.0159C89.6828 11.3602 89.9943 12.7046 90.3059 14.0431C90.4501 14.6085 90.4674 15.1855 90.0232 15.4509C89.5155 15.7566 88.9501 15.3585 88.5866 15.1393C87.4558 14.4527 86.3191 13.7661 85.1826 13.0796C84.0575 13.7315 82.9324 14.3893 81.8131 15.047C81.467 15.2547 80.9766 15.7451 80.4054 15.5143C79.8573 15.2893 79.84 14.672 80.0015 14.0431C80.3131 12.7046 80.6246 11.3602 80.9362 10.0159C79.9554 9.13897 78.9803 8.26778 77.9995 7.39082C77.6879 7.14273 77.0187 6.81388 77.1572 6.14462C77.2149 5.86191 77.4399 5.58496 77.688 5.48688C79.315 5.3311 80.9362 5.17533 82.5632 5.01955C83.2036 3.51948 83.8498 2.01941 84.496 0.519332C84.6633 0.427019 84.8306 0.334683 84.9979 0.242371Z" fill="#F9C100"/>
</svg>
